<?xml version="1.0" standalone="no"?><!DOCTYPE svg PUBLIC "-//W3C//DTD SVG 1.1//EN" "http://www.w3.org/Graphics/SVG/1.1/DTD/svg11.dtd"><svg t="1636109763131" class="icon" viewBox="0 0 1024 1024" version="1.1" xmlns="http://www.w3.org/2000/svg" p-id="3943" xmlns:xlink="http://www.w3.org/1999/xlink" width="200" height="200"><defs><style type="text/css"></style></defs><path d="M507.050667 170.666667c85.546667 0 155.178667 61.696 155.178666 137.514666v92.544H351.872V308.181333C351.872 232.362667 421.546667 170.666667 507.050667 170.666667m276.309333 407.978666a21.333333 21.333333 0 0 0 21.333333-21.333333V499.157333c0-52.010667-44.245333-94.293333-99.797333-97.792V308.181333C704.896 208.810667 616.149333 128 507.050667 128 397.952 128 309.205333 208.810667 309.205333 308.181333v93.013334C252.629333 403.669333 207.36 446.464 207.36 499.157333v255.701334C207.36 809.173333 255.317333 853.333333 314.24 853.333333h383.488C756.693333 853.333333 804.693333 809.173333 804.693333 754.858667v-69.546667a21.333333 21.333333 0 0 0-42.666666 0v69.546667c0 30.805333-28.842667 55.808-64.298667 55.808H314.24C278.826667 810.666667 250.026667 785.664 250.026667 754.858667V499.157333c0-30.762667 28.8-55.765333 64.213333-55.765333h383.488c35.456 0 64.298667 25.002667 64.298667 55.765333v58.154667a21.333333 21.333333 0 0 0 21.333333 21.333333" p-id="3944"></path></svg>